HIERARCHY
ROOT joint_Root
{
  OFFSET 0 0 0
  CHANNELS 6 Xposition Yposition Zposition Zrotation Xrotation Yrotation
  JOINT Hips
  {
    OFFSET 0 93.9241 -3
    CHANNELS 6 Xposition Yposition Zposition Zrotation Xrotation Yrotation
    JOINT Spine
    {
      OFFSET 15.7357 0 0
      CHANNELS 6 Xposition Yposition Zposition Zrotation Xrotation Yrotation
      JOINT Chest
      {
        OFFSET 8.98455 -0.406207 0
        CHANNELS 6 Xposition Yposition Zposition Zrotation Xrotation Yrotation
        JOINT Neck
        {
          OFFSET 16.3773 0 0
          CHANNELS 6 Xposition Yposition Zposition Zrotation Xrotation Yrotation
          JOINT Head
          {
            OFFSET 6.45672 0 0
            CHANNELS 6 Xposition Yposition Zposition Zrotation Xrotation Yrotation
            End Site
            {
              OFFSET 0 0 0
            }
          }
        }
        JOINT Shoulder_L
        {
          OFFSET 12.9942 -0.242716 4.98039
          CHANNELS 6 Xposition Yposition Zposition Zrotation Xrotation Yrotation
          JOINT UpperArm_L
          {
            OFFSET 5.34809 0 0
            CHANNELS 6 Xposition Yposition Zposition Zrotation Xrotation Yrotation
            JOINT LowerArm_L
            {
              OFFSET 24.3286 1.87007e-05 0
              CHANNELS 6 Xposition Yposition Zposition Zrotation Xrotation Yrotation
              JOINT Hand_L
              {
                OFFSET 22.2916 0 0
                CHANNELS 6 Xposition Yposition Zposition Zrotation Xrotation Yrotation
                End Site
                {
                  OFFSET 0 0 0
                }
              }
            }
          }
        }
        JOINT Shoulder_R
        {
          OFFSET 12.9945 -0.242716 -4.98039
          CHANNELS 6 Xposition Yposition Zposition Zrotation Xrotation Yrotation
          JOINT UpperArm_R
          {
            OFFSET -5.34813 0 0
            CHANNELS 6 Xposition Yposition Zposition Zrotation Xrotation Yrotation
            JOINT LowerArm_R
            {
              OFFSET -24.3289 0.000322201 0
              CHANNELS 6 Xposition Yposition Zposition Zrotation Xrotation Yrotation
              JOINT Hand_R
              {
                OFFSET -22.2915 -0.000108084 0
                CHANNELS 6 Xposition Yposition Zposition Zrotation Xrotation Yrotation
                End Site
                {
                  OFFSET 0 0 0
                }
              }
            }
          }
        }
      }
    }
    JOINT UpperLeg_L
    {
      OFFSET -2.19248 -6.46944 0
      CHANNELS 6 Xposition Yposition Zposition Zrotation Xrotation Yrotation
      JOINT LowerLeg_L
      {
        OFFSET 39.0811 0 -1.23785e-05
        CHANNELS 6 Xposition Yposition Zposition Zrotation Xrotation Yrotation
        JOINT Foot_L
        {
          OFFSET 40.9854 0 -1.26872e-05
          CHANNELS 6 Xposition Yposition Zposition Zrotation Xrotation Yrotation
          JOINT Toes_L
          {
            OFFSET 11.7543 0 0
            CHANNELS 6 Xposition Yposition Zposition Zrotation Xrotation Yrotation
            End Site
            {
              OFFSET 0 0 0
            }
          }
        }
      }
    }
    JOINT UpperLeg_R
    {
      OFFSET -2.19251 6.46944 0
      CHANNELS 6 Xposition Yposition Zposition Zrotation Xrotation Yrotation
      JOINT LowerLeg_R
      {
        OFFSET -39.0811 -0.00228153 -0.0401928
        CHANNELS 6 Xposition Yposition Zposition Zrotation Xrotation Yrotation
        JOINT Foot_R
        {
          OFFSET -40.9854 0 0
          CHANNELS 6 Xposition Yposition Zposition Zrotation Xrotation Yrotation
          JOINT Toes_R
          {
            OFFSET -11.7543 0 0
            CHANNELS 6 Xposition Yposition Zposition Zrotation Xrotation Yrotation
            End Site
            {
              OFFSET 0 0 0
            }
          }
        }
      }
    }
  }
}
MOTION
Frames:	4
Frame Time:	0.0333333
0 0 0 0 0 -0 -1.93871 80.8923 -382.989 86.5023 1.17251 -23.3357 15.7357 5.1072e-06 -5.51765e-07 95.9054 76.7986 -95.2506 8.98455 -0.406207 -4.3199e-07 18.4959 2.72502 0.869042 16.3773 -1.3905e-06 -6.99897e-07 -11.4481 -1.79891 -0.205814 6.45672 -1.25837e-06 -1.02172e-07 -4.58179 -5.36631 1.52749 12.9942 -0.242716 4.98039 -90.0169 0.531156 -103.185 5.34809 -7.22636e-06 -6.2814e-07 -79.4925 -30.8655 -11.297 24.3286 1.87007e-05 4.90208e-06 -2.37565 -73.3461 -2.47965 22.2916 -9.88446e-07 4.63217e-06 -10.5931 4.88832 9.60735 12.9945 -0.242716 -4.98039 90.1944 3.6944 -108.014 -5.34813 -1.25947e-06 -3.79883e-06 -71.8981 -37.702 -8.55885 -24.3289 0.000322201 -8.65921e-06 -0.610858 -37.3694 -1.00464 -22.2915 -0.000108084 -4.47941e-06 3.01855 4.69982 13.1614 -2.19248 -6.46944 -1.22533e-07 -174.541 2.97531 -57.9771 39.0811 -6.73843e-06 -1.23785e-05 -0.893347 -0.0707931 93.0773 40.9854 -6.48686e-06 -1.26872e-05 11.6881 -14.4409 -44.5847 11.7543 -2.30145e-07 3.05095e-06 0.411458 -0.495585 -21.2716 -2.19251 6.46944 -1.45247e-06 -164.974 6.44361 138.772 -39.0811 -0.00228153 -0.0401928 0.0793473 -0.027021 59.2571 -40.9854 7.72618e-06 5.99936e-06 -1.70835 -17.3468 -90.6874 -11.7543 -5.6619e-06 -5.58687e-06 0.474153 -0.525571 -20.5139 
0 0 0 0 0 -0 -1.86177 83.1672 -374.662 89.7795 2.6385 -23.1166 15.7357 5.1072e-06 -5.51765e-07 96.2365 76.8145 -96.2998 8.98455 -0.406207 -4.3199e-07 18.4663 2.80373 -0.582675 16.3773 -1.3905e-06 -6.99897e-07 -10.7179 -2.94771 0.342957 6.45672 -1.25837e-06 -1.02172e-07 -4.32408 -7.15724 1.74962 12.9942 -0.242716 4.98039 -90.0158 0.414742 -102.818 5.34809 -7.22636e-06 -6.2814e-07 -80.4711 -29.9004 -13.8848 24.3286 1.87007e-05 4.90208e-06 -6.08364 -74.3798 -6.31539 22.2916 -9.88446e-07 4.63217e-06 -9.21653 4.85943 10.1772 12.9945 -0.242716 -4.98039 90.2209 3.91592 -108.231 -5.34813 -1.25947e-06 -3.79883e-06 -71.7228 -37.9858 -9.53509 -24.3289 0.000322201 -8.65921e-06 -1.13 -39.2662 -1.78342 -22.2915 -0.000108084 -4.47941e-06 4.30922 4.72064 12.7873 -2.19248 -6.46944 -1.22533e-07 -176.192 6.22033 -63.8236 39.0811 -6.73843e-06 -1.23785e-05 -0.661709 0.0591706 82.9206 40.9854 -6.48686e-06 -1.26872e-05 10.1916 -17.5362 -52.2761 11.7543 -2.30145e-07 3.05095e-06 0.404007 -0.485841 -21.1823 -2.19251 6.46944 -1.45247e-06 -168.599 9.46363 147.058 -39.0811 -0.00228153 -0.0401928 -0.0432968 0.0528827 52.3373 -40.9854 7.72618e-06 5.99936e-06 -1.2354 -18.703 -82.6833 -11.7543 -5.6619e-06 -5.58687e-06 -0.962855 -3.17449 -28.6687 
0 0 0 0 0 -0 -1.68128 85.8554 -366.038 93.4606 5.1082 -23.5791 15.7357 5.1072e-06 -5.51765e-07 95.8465 77.1852 -96.4726 8.98455 -0.406207 -4.3199e-07 17.7575 2.5097 -1.64673 16.3773 -1.3905e-06 -6.99897e-07 -9.12175 -4.62501 0.992436 6.45672 -1.25837e-06 -1.02172e-07 -4.27998 -8.93569 2.69012 12.9942 -0.242716 4.98039 -90.0154 0.440365 -103.002 5.34809 -7.22636e-06 -6.2814e-07 -81.2043 -28.9836 -15.5289 24.3286 1.87007e-05 4.90208e-06 -10.9865 -72.4691 -11.5078 22.2916 -9.88446e-07 4.63217e-06 -8.71552 4.87821 9.81298 12.9945 -0.242716 -4.98039 90.2105 4.28566 -107.816 -5.34813 -1.25947e-06 -3.79883e-06 -71.6783 -39.7798 -9.36382 -24.3289 0.000322201 -8.65921e-06 -1.82669 -41.2157 -2.76938 -22.2915 -0.000108084 -4.47941e-06 6.05835 4.76329 12.0078 -2.19248 -6.46944 -1.22533e-07 -179.379 8.9199 -64.7683 39.0811 -6.73843e-06 -1.23785e-05 -0.353339 0.15672 63.8729 40.9854 -6.48686e-06 -1.26872e-05 7.64321 -16.3778 -57.8769 11.7543 -2.30145e-07 3.05095e-06 0.375585 -0.448957 -20.8432 -2.19251 6.46944 -1.45247e-06 -172.221 13.7166 155.5 -39.0811 -0.00228153 -0.0401928 -0.0721087 0.0926934 43.2643 -40.9854 7.72618e-06 5.99936e-06 1.64512 -19.3936 -70.6526 -11.7543 -5.6619e-06 -5.58687e-06 1.98316 -2.921 -36.2839 
0 0 0 0 0 -0 -1.46901 87.6509 -356.986 96.0335 7.57245 -23.5593 15.7357 5.1072e-06 -5.51765e-07 96.8688 77.5073 -97.7258 8.98455 -0.406207 -4.3199e-07 17.0779 2.86914 -2.14782 16.3773 -1.3905e-06 -6.99897e-07 -7.44482 -6.36542 1.74111 6.45672 -1.25837e-06 -1.02172e-07 -3.69142 -10.7949 3.78501 12.9942 -0.242716 4.98039 -90.0122 0.437669 -103.413 5.34809 -7.22636e-06 -6.2814e-07 -80.9922 -25.0426 -16.8439 24.3286 1.87007e-05 4.90208e-06 -15.6611 -74.4226 -16.227 22.2916 -9.88446e-07 4.63217e-06 -6.59401 4.93147 8.74676 12.9945 -0.242716 -4.98039 90.1742 4.93773 -107.024 -5.34813 -1.25947e-06 -3.79883e-06 -70.592 -39.892 -7.38782 -24.3289 0.000322201 -8.65921e-06 -2.31134 -43.0885 -3.37999 -22.2915 -0.000108084 -4.47941e-06 6.15397 4.81435 11.0451 -2.19248 -6.46944 -1.22534e-07 174.728 8.2561 -59.8496 39.0811 -6.73843e-06 -1.23785e-05 -0.136693 0.144771 39.9018 40.9854 -6.48686e-06 -1.26872e-05 2.31467 -13.4229 -62.8619 11.7543 -2.30145e-07 3.05095e-06 0.381963 -0.457185 -20.919 -2.19251 6.46944 -1.45247e-06 -174.92 14.6535 162.834 -39.0811 -0.00228153 -0.0401928 -0.0514534 0.0942122 36.5594 -40.9854 7.72618e-06 5.99936e-06 6.33289 -21.2754 -53.242 -11.7543 -5.6619e-06 -5.58687e-06 2.67912 -5.0445 -48.7018 
